PathFileType	4	(X/Y/Z)	RBDS013\RBDS013runT45.trc
DataRate	CameraRate	NumFrames	NumMarkers	Units	OrigDataRate	OrigDataStartFrame	OrigNumFrames
150.000000	150.000000	6	33	mm	150.000000	1687	4500
Frame#	Time	L.ASIS			L.Heel.Bottom			L.Heel.Lateral			L.Heel.Top			L.Iliac.Crest			L.MT1			L.MT5			L.PSIS			L.Shank.Bottom.Lateral			L.Shank.Bottom.Medial			L.Shank.Top.Lateral			L.Shank.Top.Medial			L.Thigh.Bottom.Lateral			L.Thigh.Bottom.Medial			L.Thigh.Top.Lateral			L.Thigh.Top.Medial			R.ASIS			R.ASY			R.Heel.Bottom			R.Heel.Lateral			R.Heel.Top			R.Iliac.Crest			R.MT1			R.MT5			R.PSIS			R.Shank.Bottom.Lateral			R.Shank.Bottom.Medial			R.Shank.Top.Lateral			R.Shank.Top.Medial			R.Thigh.Bottom.Lateral			R.Thigh.Bottom.Medial			R.Thigh.Top.Lateral			R.Thigh.Top.Medial			
		X1	Y1	Z1	X2	Y2	Z2	X3	Y3	Z3	X4	Y4	Z4	X5	Y5	Z5	X6	Y6	Z6	X7	Y7	Z7	X8	Y8	Z8	X9	Y9	Z9	X10	Y10	Z10	X11	Y11	Z11	X12	Y12	Z12	X13	Y13	Z13	X14	Y14	Z14	X15	Y15	Z15	X16	Y16	Z16	X17	Y17	Z17	X18	Y18	Z18	X19	Y19	Z19	X20	Y20	Z20	X21	Y21	Z21	X22	Y22	Z22	X23	Y23	Z23	X24	Y24	Z24	X25	Y25	Z25	X26	Y26	Z26	X27	Y27	Z27	X28	Y28	Z28	X29	Y29	Z29	X30	Y30	Z30	X31	Y31	Z31	X32	Y32	Z32	X33	Y33	Z33	

1688	11.24666666666667	2358.785962938603	893.5607513636638	918.5260926535882	2385.669178740226	34.40518259636699	1018.989412049213	2407.479185585409	53.56495775731815	974.224327906701	2393.539328354767	80.52381590612072	1013.445940324595	2296.303394327526	966.4651956637376	882.8507177505817	2596.276304946255	61.80199832601536	1041.433215772529	2561.921122333928	38.2104407127782	936.3869691233583	2205.005204290267	939.5682382730724	989.8619742532975	2449.262571060126	161.9862876021724	946.9174975628212	2406.989747743807	164.823546186575	982.1341792067556	2437.285663119862	238.9792925825838	928.4288592881446	2397.502714480132	243.0024063295153	964.320479531225	2435.850462820568	572.4035722197349	888.8363633385773	2373.36237933121	545.4753268701069	915.5100458996355	2382.459470673743	666.0485713663329	866.085324346304	2323.444495629872	641.2338323990101	891.2287329375137	2382.501651799105	886.7945173169754	1147.673960081635	1757.843945619307	586.3537174060414	1096.571802156156	1833.891479264796	759.4131043877537	1057.353090198553	1832.393053282374	735.1950334093815	1102.313195945668	1866.168898528081	720.4523975739135	1065.45243476882	2345.745599820661	958.0298054148295	1178.409608168353	1713.441069736973	586.60086857378	1048.816993676342	1721.844761476459	630.77821806697	1149.649600400337	2214.811854858322	941.7200111753953	1091.694133170107	1888.218038485798	646.7479246704809	1135.044888301602	1910.091913088177	676.3837020491953	1099.25128970412	1964.611704319102	617.144865344347	1156.356604073579	1983.972919114226	650.4161032231998	1118.649650925153	2205.441376388597	589.0892057058197	1199.943175937921	2150.321484598223	604.3998556024417	1153.84533440314	2227.27708071969	696.3680815075072	1203.435981042787	2175.745440657623	711.2803701905378	1158.773856368892	
1689	11.25333333333333	2357.437308675273	888.8102937359031	917.9017804689501	2357.909993987387	33.5453839099901	1020.551532824552	2380.280787338374	53.30244749297874	976.3297543998168	2367.381329865866	79.68790861990776	1016.290647822898	2295.34159529162	960.0131627427343	882.9459855854282	2570.17287956932	54.64956225946273	1043.789356025892	2534.278997510337	35.04422154147195	937.5969652822859	2204.03033347021	933.8545489067019	991.7734708835599	2429.923920199584	158.1339023265079	949.6942156524723	2387.294281925656	163.7286782716222	984.0531785366167	2422.923598630829	235.6491794548719	930.7059834595585	2382.837337029674	242.2513671627455	965.7550825311026	2433.805862448386	568.0676206744602	889.2196614936315	2371.546259865368	541.0191748746169	916.1577678573292	2380.006425464901	661.4768828380443	866.3194596862422	2321.142569920446	636.5102520027625	891.680319575329	2382.928273026087	880.5406378587547	1146.58963865894	1776.498872598327	591.6791084523206	1096.003726810753	1858.482547257056	762.3656357860106	1058.172935896895	1856.132724563693	737.7589648719278	1102.959954981164	1889.556323320255	722.3309444484096	1066.011686460153	2348.523471279047	950.4487220663344	1178.628757725189	1732.330128945469	593.8328510003817	1048.056636909233	1742.020763455433	636.7471835197434	1149.325983269088	2214.520643965549	935.2055497123018	1093.87508245363	1908.561806398972	647.1208499191586	1135.500593662792	1932.052998427118	675.6774026652339	1099.878189542819	1983.295587215488	613.9286094933457	1157.256714274639	2004.524493625289	646.2602837532825	1119.600777992073	2213.430096620062	580.1668388202859	1201.573051713686	2157.494150488717	593.6844062373796	1156.096209320379	2232.033230167538	688.0673306858417	1204.6061754679	2179.675017551714	701.3789814753535	1160.545804813117	
1690	11.26	2355.724581378684	884.1360678844737	917.2131125441158	2329.034770682968	33.16396012424558	1022.039621794353	2351.870558164755	53.62242245046287	978.3614259901979	2339.844059347044	79.33112826570013	1019.058230426736	2294.231302695241	953.2677379288217	882.9521072201408	2542.610799307714	49.09920046475118	1046.041034023693	2505.395302140037	33.1772875834795	938.7585806977872	2202.809750112508	928.6035396362876	993.6978163875116	2409.179995574733	155.1283171387677	952.4610342694434	2366.264684930477	163.5487448557968	985.9086546086403	2407.270835990897	232.937844130023	933.0020260562724	2366.951995514672	242.1819168370474	967.1600910972109	2430.586985053639	563.4142569489793	889.6152814296568	2368.545838969194	536.5657575274056	917.072581575139	2376.73229082842	656.7929795739706	866.5650661390179	2317.979423765292	631.9625301739371	892.3417115107001	2382.854692311543	874.4726839376335	1145.512875837806	1795.876570548822	594.3855393744495	1095.600879487271	1882.514991004799	763.1903281150435	1059.155587827681	1879.507786508027	738.2129266038505	1103.763955138259	1912.635324721108	722.3333531152775	1066.645342406654	2350.670846626545	943.2251726844022	1178.812103808654	1751.931965476771	598.1201550301537	1047.544861964764	1762.641870220498	639.8269096746548	1149.205365213241	2214.015638349149	929.19166990676	1095.860813169619	1929.321194304342	645.820851949941	1136.066733195434	1954.19430908024	673.3017667218628	1100.537430844018	2002.513842285849	609.4874602837862	1158.128203616829	2025.350533700558	640.8580411373063	1120.471960143158	2222.183213676788	571.6029414509538	1203.298021396288	2165.491731791412	582.999500625487	1158.422367966755	2237.111163065097	680.0715689597516	1205.830673195315	2183.935591451445	691.4800041270557	1162.412825536578	
1691	11.26666666666667	2353.640977486475	879.6734720104461	916.4273120332007	2299.42205560814	33.22648466932791	1023.358927183983	2322.627385805942	54.41184349419867	980.1852901729894	2311.28805362209	79.41588680239049	1021.560424775909	2292.871152723428	946.4784169298031	882.8991622038247	2513.934818708291	45.17858513982868	1048.09075040775	2475.677964266315	32.45076434962964	939.8230151343158	2201.339493283283	923.9678533291836	995.6027391377321	2387.154361492717	152.9739305527506	955.036368522046	2344.062931429186	164.1985687410335	987.5673430243862	2390.310921862695	230.8180686435041	935.1770499042179	2349.863249116039	242.6841170998119	968.4399479736633	2425.994899344977	558.4836313885851	890.0464541988248	2364.131280301503	532.2063612334249	918.2372140383035	2372.540676990499	652.0841265692505	866.8494657565054	2313.842384242124	627.734473042806	893.2199292199293	2382.238617156552	868.7946763116475	1144.512534494482	1815.715331797367	594.4806205737929	1095.329836661765	1905.574547604152	762.1016689187664	1060.398587350389	1902.136487117318	736.7231834279255	1104.80613349417	1935.034546016548	720.6774277419029	1067.431856662118	2351.921432997969	936.6220030805152	1179.00195486499	1771.945419695119	599.4605783927502	1047.243409607618	1783.385827157757	639.9785873778651	1149.280662707751	2213.248190976232	923.8281905496373	1097.595455211026	1950.27369420853	642.9894207020776	1136.778182610481	1976.261022052965	669.4928299443459	1101.273551671773	2022.153619744813	604.0288084334419	1158.993650799528	2046.292227510886	634.5087914073916	1121.308985855304	2231.819262761087	563.6341272339874	1205.08318574463	2174.47115120652	572.5590177710906	1160.770529582196	2242.58722654611	672.567873846479	1207.076406893011	2188.621573356205	681.7377901709117	1164.342198570009	
1692	11.27333333333333	2351.215906279158	875.5546531843726	915.5243411593032	2269.355240780852	33.69185909129732	1024.434988725888	2292.843770298567	55.54807840934416	981.6899550671391	2282.013511984747	79.89920825225408	1023.640728682876	2291.17246045874	939.9375789591523	882.8230092727247	2484.438233895415	42.7624448330374	1049.857780055595	2445.445254742365	32.61819493271681	940.7443105672113	2199.64188517325	920.0861853045636	997.443582318853	2363.954935811758	151.6078578791525	957.2614748873531	2320.82318626835	165.5375983348699	988.9117344458646	2372.029270805712	229.2162635100407	937.0983530117945	2331.577670301594	243.6134832548805	969.4994699383575	2419.90412516718	553.3543403972486	890.5271951001117	2358.142027037117	528.0398821185686	919.5873958399686	2367.384409529498	647.4578685649482	867.1959556506961	2308.666413126764	623.9617688237937	894.285176040456	2381.075792980469	863.7115185057772	1143.658305119569	1835.76903646849	592.0058178339283	1095.154073040536	1927.248906034622	759.2939937929457	1061.975437514679	1923.638319917851	733.4488736727616	1106.151267039699	1956.381215497663	717.5714654492035	1068.437603494867	2352.06223909329	930.8829382932514	1179.244138951758	1792.099196786505	597.880931319368	1047.105674833638	1803.950106401456	637.1891295703592	1149.530184271924	2212.184721633421	919.258711962393	1099.036688550181	1971.168406953321	638.7906141770851	1137.653434409126	1997.973693845131	664.5056313806526	1102.115813903948	2042.065847549964	597.7961432311899	1159.867342105548	2067.160062583471	627.5433954507421	1122.145401454325	2242.422225403066	556.5101220945591	1206.886498189445	2184.557325440691	562.6110259316596	1163.081229054737	2248.521659040597	665.7475803758874	1208.309948780635	2193.821686246612	672.3289215445476	1166.292622669443	
1693	11.28	2348.517486586435	871.8994829354622	914.5047700937365	2239.027225147616	34.5254905727755	1025.223769126135	2262.729043213089	56.92197612170987	982.8018077143201	2252.258703792486	80.74451456466633	1025.194067124452	2289.079813133441	933.953796422306	882.7602000871698	2454.354425350843	41.61140145264399	1051.288446559165	2414.921274754452	33.39106850592876	941.4898401622183	2197.766330151303	917.0731926080574	999.1637683233289	2339.682086358981	150.9259703236933	959.0226296079597	2296.65713219756	167.4003497456371	989.8588142741669	2352.425453775556	228.0378418028735	938.6588757804963	2312.10256352733	244.8200168885292	970.2599801740662	2412.265522406061	548.1383350852001	891.0552716349141	2350.493911481224	524.1714090781682	921.018303661594	2361.266487111865	643.035456454391	867.6174275352274	2302.436850044441	620.7673495775092	895.4739202681149	2379.403268035471	859.4152014928944	1143.015142431477	1855.81834764262	587.0340494960835	1095.037775349407	1947.151216851131	754.9222979113276	1063.925675268157	1943.656733890382	728.5292185246417	1107.839571545082	1976.322024933061	713.1939503272396	1069.708875570175	2350.96056170139	926.211276972894	1179.580675646294	1812.16278907424	593.4337525732117	1047.082049209529	1824.071226003175	631.4763495951706	1149.921578856627	2210.815573385457	915.6097780694168	1100.157271933555	1991.733332297068	633.398058275302	1138.692441997243	2019.034698558851	658.5948011299288	1103.077014913009	2062.063698269993	591.0521572348628	1160.752952263997	2087.732095171844	620.30136241991	1123.000534977259	2254.025088632343	550.4812210107876	1208.659372284149	2195.823969167589	553.428468012938	1165.289056928494	2254.949266165244	659.798475866203	1209.499502025503	2199.608577074922	663.4496888071704	1168.21526056391	
